<svg id="Layer_1" data-name="Layer 1" xmlns="http://www.w3.org/2000/svg" viewBox="0 0 122.88 122.88"><title>clock-watch</title><path d="M61.44,0A61.46,61.46,0,1,1,18,18,61.21,61.21,0,0,1,61.44,0ZM36.34,18.1a3.27,3.27,0,1,1-1.2,4.46,3.27,3.27,0,0,1,1.2-4.46ZM18,36.53A3.26,3.26,0,1,1,19.19,41,3.27,3.27,0,0,1,18,36.53ZM11.33,61.66a3.27,3.27,0,1,1,3.26,3.27,3.27,3.27,0,0,1-3.26-3.27Zm6.78,25.1A3.27,3.27,0,1,1,22.58,88a3.27,3.27,0,0,1-4.47-1.2ZM36.54,105.1A3.26,3.26,0,1,1,41,103.91a3.27,3.27,0,0,1-4.47,1.19Zm25.14,6.67a3.27,3.27,0,1,1,3.26-3.26,3.26,3.26,0,0,1-3.26,3.26ZM86.78,105A3.27,3.27,0,1,1,88,100.52,3.27,3.27,0,0,1,86.78,105Zm18.34-18.43a3.27,3.27,0,1,1-1.2-4.47,3.27,3.27,0,0,1,1.2,4.47Zm6.67-25.14a3.27,3.27,0,1,1-3.27-3.26,3.26,3.26,0,0,1,3.27,3.26ZM105,36.32a3.27,3.27,0,1,1-4.46-1.19A3.28,3.28,0,0,1,105,36.32ZM86.57,18a3.27,3.27,0,1,1-4.46,1.2A3.27,3.27,0,0,1,86.57,18ZM61.44,11.31a3.27,3.27,0,1,1-3.27,3.27,3.27,3.27,0,0,1,3.27-3.27ZM58.31,49.52h6.48a.73.73,0,0,0,.74-.73L61.77,21.51,57.58,48.79a.74.74,0,0,0,.73.73Zm14,14.29V60.18a.72.72,0,0,1,.73-.73l27.3,1.85-27.3,3.24a.71.71,0,0,1-.73-.73Zm-10.79-9.5A7.69,7.69,0,1,1,53.87,62a7.69,7.69,0,0,1,7.69-7.69ZM100.84,22a55.72,55.72,0,1,0,16.32,39.4A55.55,55.55,0,0,0,100.84,22Z"/></svg>